<svg width="12" height="12" viewBox="0 0 12 12" fill="none" xmlns="http://www.w3.org/2000/svg">
<g id="Close">
<path id="Vector" d="M6.70516 6.00125L10.8502 1.85625C11.0452 1.66125 11.0452 1.34625 10.8502 1.15125C10.6552 0.956255 10.3402 0.956255 10.1452 1.15125L6.00015 5.29625L1.85516 1.15125C1.66016 0.956255 1.34516 0.956255 1.15016 1.15125C0.955156 1.34625 0.955156 1.66125 1.15016 1.85625L5.29515 6.00125L1.15016 10.1463C0.955156 10.3413 0.955156 10.6563 1.15016 10.8513C1.25016 10.9513 1.37515 10.9963 1.50515 10.9963C1.63515 10.9963 1.76016 10.9463 1.86016 10.8513L6.00515 6.70625L10.1502 10.8513C10.2502 10.9513 10.3752 10.9963 10.5052 10.9963C10.6352 10.9963 10.7602 10.9463 10.8602 10.8513C11.0552 10.6563 11.0552 10.3413 10.8602 10.1463L6.70516 6.00125Z" fill="white"/>
</g>
</svg>
